<svg xmlns="http://www.w3.org/2000/svg" viewBox="0 0 100 100">
    <style>
        path {
            fill: #222;
        }
        @media (prefers-color-scheme: dark) {
            path {
                fill: #fffaef;
            }
        }
    </style>
    <path d="M77.35 71.71c-.64 3.27-1.53 6.29-8.39 11.43-6.67 3.38-12.72 4.38-18.88 4.38h-1.2c-7.51 0-13.98-2.4-19.54-7.36-3.16-2.86-5.41-5.86-6.46-8.87-.6-1.5-.9-2.71-.9-3.91 0-1.2.15-2.1.6-3.01.3-.75.75-1.35 1.2-1.5.45-.3.75-.15 1.2.3.3.45.6 1.35.6 2.56 0 1.35.3 2.71.9 4.06s1.35 2.86 2.4 4.21c1.05 1.35 2.25 2.71 3.76 3.91 1.5 1.2 3.16 2.25 4.81 3.16 3.91 1.95 7.97 3.01 12.32 3.01 4.06 0 7.82-1.35 11.57-3.91 4.06-3.01 6.01-6.31 6.01-10.22 0-3.91-1.95-6.76-5.71-8.72-2.86-1.5-7.06-2.56-12.62-3.46s-9.92-2.1-13.08-3.76c-3.16-1.65-5.71-3.46-7.82-5.71-2.1-2.25-3.76-4.66-4.81-7.21s-1.5-5.11-1.5-7.82.6-5.26 1.65-7.82c1.05-2.56 2.71-4.66 4.81-6.61 4.66-4.21 10.97-6.31 18.94-6.31 9.17 0 16.38 2.4 21.94 7.21 5.11 4.51 7.67 9.92 7.67 16.38 0 1.65-.15 2.86-.6 3.61-.3.75-.75 1.2-1.35 1.05-.6-.15-.9-.45-1.35-1.35-.45-.75-.6-2.25-.6-4.51 0-2.1-.6-4.51-1.8-6.91a18.63 18.63 0 00-5.11-6.31c-4.81-3.91-11.12-5.71-18.94-5.71-5.56 0-10.07 1.5-13.38 4.36-3.16 2.71-4.81 5.86-4.96 9.77v.45c0 3.76 1.5 7.21 4.66 10.07 3.76 3.46 9.02 5.56 15.78 6.46 13.23 1.8 21.94 5.56 26.15 11.27 1.95 2.71 2.86 5.41 2.86 8.42 0 2.1-.45 4.36-1.5 6.61-.75 1.65-1.65 3.16-2.71 4.36" fill="#010101"/>
</svg>